<svg xmlns="http://www.w3.org/2000/svg" viewBox="0 0 512 512">
  <defs>
    <linearGradient id="bg" x1="0" y1="0" x2="1" y2="1">
      <stop offset="0%" stop-color="#2563eb"/>
      <stop offset="100%" stop-color="#7c3aed"/>
    </linearGradient>
  </defs>
  <rect width="512" height="512" rx="96" fill="url(#bg)"/>
  <g transform="translate(96 96) scale(13.33)">
    <path fill="#ffffff" d="M12 0C5.37 0 0 5.37 0 12c0 5.31 3.44 9.8 8.21 11.39.6.1.82-.26.82-.57v-2.24c-3.02.56-3.8-.73-4.04-1.41-.13-.34-.72-1.41-1.23-1.69-.42-.23-1.02-.78-.02-.8.95-.01 1.62.87 1.85 1.23 1.08 1.82 2.8 1.3 3.49.99.11-.78.42-1.3.77-1.6-2.67-.3-5.47-1.34-5.47-5.93 0-1.3.47-2.38 1.23-3.22-.12-.3-.54-1.53.12-3.18 0 0 1.01-.32 3.3 1.23.96-.27 1.98-.4 3-.4s2.04.14 3 .4c2.3-1.56 3.3-1.23 3.3-1.23.66 1.65.24 2.88.12 3.18.77.84 1.23 1.9 1.23 3.22 0 4.61-2.81 5.63-5.48 5.93.43.38.81 1.1.81 2.22v3.3c0 .31.22.69.83.57A12.02 12.02 0 0 0 24 12c0-6.63-5.37-12-12-12z"/>
  </g>
</svg>
